<?xml version="1.0" encoding="utf-8"?>
<!-- Generator: Adobe Illustrator 16.0.0, SVG Export Plug-In . SVG Version: 6.00 Build 0)  -->
<!DOCTYPE svg PUBLIC "-//W3C//DTD SVG 1.1//EN" "http://www.w3.org/Graphics/SVG/1.1/DTD/svg11.dtd">
<svg version="1.1" id="Layer_1" xmlns="http://www.w3.org/2000/svg" xmlns:xlink="http://www.w3.org/1999/xlink" x="0px" y="0px"
	 width="378px" height="378px" viewBox="-61 -44.5 378 378" enable-background="new -61 -44.5 378 378" xml:space="preserve">
<g>
	<polygon fill="#FBBD16" points="41.831,247.006 41.831,162.663 58.001,253.756 84.326,266.875 101.249,191.154 101.249,273.999 
		130.956,288.616 130.956,148.798 85.83,127.429 71.542,194.154 57.126,113.684 12.247,92.195 12.247,232.139 	"/>
	<polygon fill="#452E7F" points="135.092,148.763 182.228,124.269 182.228,225.729 247.405,191.996 247.659,230.229 
		135.216,289.328 	"/>
	<path fill="#962444" d="M116.088,1.329L82.758,30.797c0,0,65.029,33.425,72.927,37.376c7.902,3.948,19.147,11.548,6.992,22.792
		c-12.156,11.241-25.526,9.723-34.646,5.163c-9.111-4.556-76.57-38.59-76.57-38.59L17.123,86.707c0,0,66.243,33.733,77.184,39.503
		c10.94,5.778,51.659,20.055,90.248-10.029c38.593-30.082,33.122-41.022,33.122-43.148c0-2.126-0.91-13.369-7.592-20.358
		c-6.689-6.989-26.133-17.017-34.341-21.27C167.539,27.15,116.088,1.329,116.088,1.329z"/>
</g>
</svg>
